<mxfile host="app.diagrams.net" modified="2023-11-29T12:27:30.907Z" agent="Mozilla/5.0 (Windows NT 10.0; Win64; x64) AppleWebKit/537.36 (KHTML, like Gecko) Chrome/116.0.5845.686 YaBrowser/23.9.0.0 Safari/537.36" version="22.1.4" etag="3XOB0Raph7M_Vd1tTWTx" type="github">
  <diagram name="Страница — 1" id="YcqCHWIWePCYdiNYuav_">
    <mxGraphModel>
      <root>
        <mxCell id="0" />
        <mxCell id="1" parent="0" />
      </root>
    </mxGraphModel>
  </diagram>
</mxfile>
